<?xml version="1.0" encoding="UTF-8"?>
<!DOCTYPE svg PUBLIC "-//W3C//DTD SVG 1.1//EN" "http://www.w3.org/Graphics/SVG/1.1/DTD/svg11.dtd">
<svg xmlns="http://www.w3.org/2000/svg" version="1.1" width="510px" height="460px" style="shape-rendering:geometricPrecision; text-rendering:geometricPrecision; image-rendering:optimizeQuality; fill-rule:evenodd; clip-rule:evenodd" xmlns:xlink="http://www.w3.org/1999/xlink">
<g><path style="opacity:1" fill="#fefefe" d="M -0.5,-0.5 C 169.5,-0.5 339.5,-0.5 509.5,-0.5C 509.5,152.833 509.5,306.167 509.5,459.5C 339.5,459.5 169.5,459.5 -0.5,459.5C -0.5,306.167 -0.5,152.833 -0.5,-0.5 Z"/></g>
<g><path style="opacity:1" fill="#ff8721" d="M 84.5,233.5 C 88.1817,233.335 91.8484,233.501 95.5,234C 99.6434,238.233 103.977,242.233 108.5,246C 99.5062,246.5 90.5062,246.666 81.5,246.5C 80.738,241.607 81.738,237.274 84.5,233.5 Z"/></g>
<g><path style="opacity:1" fill="#ff8720" d="M 150.5,269.5 C 137.656,269.829 124.989,269.495 112.5,268.5C 119.137,263.198 125.47,257.531 131.5,251.5C 124.711,245.882 118.044,240.049 111.5,234C 124.5,233.333 137.5,233.333 150.5,234C 151.931,234.465 153.097,235.299 154,236.5C 154.667,246.5 154.667,256.5 154,266.5C 153.578,268.426 152.411,269.426 150.5,269.5 Z"/></g>
<g><path style="opacity:1" fill="#2938ff" d="M 197.5,236.5 C 197.5,246.833 197.5,257.167 197.5,267.5C 193.5,267.5 189.5,267.5 185.5,267.5C 185.5,263.833 185.5,260.167 185.5,256.5C 183.167,256.5 180.833,256.5 178.5,256.5C 178.5,260.167 178.5,263.833 178.5,267.5C 174.5,267.5 170.5,267.5 166.5,267.5C 166.5,257.167 166.5,246.833 166.5,236.5C 170.5,236.5 174.5,236.5 178.5,236.5C 178.5,240.167 178.5,243.833 178.5,247.5C 180.833,247.5 183.167,247.5 185.5,247.5C 185.5,243.833 185.5,240.167 185.5,236.5C 189.5,236.5 193.5,236.5 197.5,236.5 Z"/></g>
<g><path style="opacity:1" fill="#d1d5ff" d="M 197.5,236.5 C 198.167,246.5 198.833,256.5 199.5,266.5C 199.5,266.833 199.5,267.167 199.5,267.5C 198.833,267.5 198.167,267.5 197.5,267.5C 197.5,257.167 197.5,246.833 197.5,236.5 Z"/></g>
<g><path style="opacity:1" fill="#2838ff" d="M 238.5,266.5 C 238.5,266.833 238.5,267.167 238.5,267.5C 233.456,267.827 228.456,267.494 223.5,266.5C 223.291,265.914 222.957,265.414 222.5,265C 218.695,263.921 215.362,264.588 212.5,267C 208.179,267.499 203.846,267.666 199.5,267.5C 199.5,267.167 199.5,266.833 199.5,266.5C 204.654,256.86 209.821,247.194 215,237.5C 217.916,235.987 220.582,236.32 223,238.5C 228.433,247.7 233.599,257.033 238.5,266.5 Z"/></g>
<g><path style="opacity:1" fill="#bbc1ff" d="M 240.5,236.5 C 240.5,246.833 240.5,257.167 240.5,267.5C 239.833,267.5 239.167,267.5 238.5,267.5C 238.5,267.167 238.5,266.833 238.5,266.5C 239.167,256.5 239.833,246.5 240.5,236.5 Z"/></g>
<g><path style="opacity:1" fill="#2838ff" d="M 254.5,260.5 C 254.44,259.957 254.107,259.624 253.5,259.5C 252.52,262.086 252.187,264.753 252.5,267.5C 248.5,267.5 244.5,267.5 240.5,267.5C 240.5,257.167 240.5,246.833 240.5,236.5C 247.086,235.374 253.753,235.208 260.5,236C 269.009,237.18 272.509,242.014 271,250.5C 269.691,252.976 267.858,254.976 265.5,256.5C 267.975,260.142 270.642,263.642 273.5,267C 268.5,267.667 263.5,267.667 258.5,267C 256.942,264.948 255.608,262.781 254.5,260.5 Z"/></g>
<g><path style="opacity:1" fill="#2938ff" d="M 313.5,265.5 C 313.833,266.167 314.167,266.833 314.5,267.5C 305.489,267.622 296.823,266.622 288.5,264.5C 288.5,265.5 288.5,266.5 288.5,267.5C 283.786,267.827 279.12,267.493 274.5,266.5C 279.667,256.833 284.833,247.167 290,237.5C 292.916,235.987 295.582,236.32 298,238.5C 303.178,247.527 308.345,256.527 313.5,265.5 Z"/></g>
<g><path style="opacity:1" fill="#d1d5ff" d="M 315.5,236.5 C 315.5,246.833 315.5,257.167 315.5,267.5C 315.167,267.5 314.833,267.5 314.5,267.5C 314.167,266.833 313.833,266.167 313.5,265.5C 314.167,255.833 314.833,246.167 315.5,236.5 Z"/></g>
<g><path style="opacity:1" fill="#2637ff" d="M 315.5,236.5 C 317.199,236.34 318.866,236.506 320.5,237C 325.032,241.867 329.866,246.367 335,250.5C 340.134,246.367 344.968,241.867 349.5,237C 351.134,236.506 352.801,236.34 354.5,236.5C 354.5,246.833 354.5,257.167 354.5,267.5C 350.5,267.5 346.5,267.5 342.5,267.5C 342.665,264.15 342.498,260.817 342,257.5C 339.333,260.167 336.667,262.833 334,265.5C 331.667,263.167 329.333,260.833 327,258.5C 326.502,261.482 326.335,264.482 326.5,267.5C 322.833,267.5 319.167,267.5 315.5,267.5C 315.5,257.167 315.5,246.833 315.5,236.5 Z"/></g>
<g><path style="opacity:1" fill="#6471ff" d="M 378.5,236.5 C 371.833,236.5 365.167,236.5 358.5,236.5C 358.5,246.833 358.5,257.167 358.5,267.5C 357.506,257.013 357.172,246.346 357.5,235.5C 364.687,235.175 371.687,235.509 378.5,236.5 Z"/></g>
<g><path style="opacity:1" fill="#2436ff" d="M 378.5,236.5 C 385.214,236.05 388.38,239.05 388,245.5C 387.5,247.333 386.333,248.5 384.5,249C 390.612,252.293 392.112,257.127 389,263.5C 386.958,265.604 384.458,266.771 381.5,267C 373.841,267.5 366.174,267.666 358.5,267.5C 358.5,257.167 358.5,246.833 358.5,236.5C 365.167,236.5 371.833,236.5 378.5,236.5 Z"/></g>
<g><path style="opacity:1" fill="#2737ff" d="M 404.5,247.5 C 407.625,248.479 410.958,248.813 414.5,248.5C 414.5,250.833 414.5,253.167 414.5,255.5C 411.167,255.5 407.833,255.5 404.5,255.5C 404.5,256.5 404.5,257.5 404.5,258.5C 408.167,258.5 411.833,258.5 415.5,258.5C 415.5,261.5 415.5,264.5 415.5,267.5C 407.833,267.5 400.167,267.5 392.5,267.5C 392.5,257.167 392.5,246.833 392.5,236.5C 400.167,236.5 407.833,236.5 415.5,236.5C 415.5,239.5 415.5,242.5 415.5,245.5C 411.351,244.92 407.684,245.586 404.5,247.5 Z"/></g>
<g><path style="opacity:1" fill="#2737ff" d="M 430.5,247.5 C 433.625,248.479 436.958,248.813 440.5,248.5C 440.5,250.833 440.5,253.167 440.5,255.5C 437.167,255.5 433.833,255.5 430.5,255.5C 430.5,256.5 430.5,257.5 430.5,258.5C 434.167,258.5 437.833,258.5 441.5,258.5C 441.5,261.5 441.5,264.5 441.5,267.5C 433.833,267.5 426.167,267.5 418.5,267.5C 418.5,257.167 418.5,246.833 418.5,236.5C 426.167,236.5 433.833,236.5 441.5,236.5C 441.5,239.5 441.5,242.5 441.5,245.5C 437.351,244.92 433.684,245.586 430.5,247.5 Z"/></g>
<g><path style="opacity:1" fill="#e8e8ff" d="M 255.5,243.5 C 260.799,243.549 261.799,245.715 258.5,250C 256.783,251.559 254.783,252.392 252.5,252.5C 252.337,250.143 252.503,247.81 253,245.5C 253.995,244.934 254.828,244.267 255.5,243.5 Z"/></g>
<g><path style="opacity:1" fill="#e5e5ff" d="M 372.5,243.5 C 373.833,243.5 375.167,243.5 376.5,243.5C 376.618,247.482 374.618,249.815 370.5,250.5C 368.911,247.412 369.578,245.078 372.5,243.5 Z"/></g>
<g><path style="opacity:1" fill="#fff6ef" d="M 138.5,246.5 C 144.83,245.666 147.663,248.333 147,254.5C 143.952,258.01 140.619,258.343 137,255.5C 134.788,252.021 135.288,249.021 138.5,246.5 Z"/></g>
<g><path style="opacity:1" fill="#7984ff" d="M 404.5,247.5 C 408.167,247.5 411.833,247.5 415.5,247.5C 415.806,250.385 415.473,253.052 414.5,255.5C 414.5,253.167 414.5,250.833 414.5,248.5C 410.958,248.813 407.625,248.479 404.5,247.5 Z"/></g>
<g><path style="opacity:1" fill="#7984ff" d="M 430.5,247.5 C 434.167,247.5 437.833,247.5 441.5,247.5C 441.806,250.385 441.473,253.052 440.5,255.5C 440.5,253.167 440.5,250.833 440.5,248.5C 436.958,248.813 433.625,248.479 430.5,247.5 Z"/></g>
<g><path style="opacity:1" fill="#e7e7ff" d="M 217.5,250.5 C 219.655,252.617 220.655,255.284 220.5,258.5C 218.473,258.662 216.473,258.495 214.5,258C 215.991,255.692 216.991,253.192 217.5,250.5 Z"/></g>
<g><path style="opacity:1" fill="#ececff" d="M 292.5,251.5 C 294.447,253.216 295.781,255.383 296.5,258C 294.527,258.495 292.527,258.662 290.5,258.5C 290.767,256.035 291.434,253.701 292.5,251.5 Z"/></g>
<g><path style="opacity:1" fill="#e7e7ff" d="M 373.5,253.5 C 374.833,253.5 376.167,253.5 377.5,253.5C 377.068,258.09 374.402,260.423 369.5,260.5C 369.127,257.068 370.46,254.734 373.5,253.5 Z"/></g>
<g><path style="opacity:1" fill="#ff8824" d="M 81.5,257.5 C 90.5062,257.334 99.5062,257.5 108.5,258C 103.833,262 99.1667,266 94.5,270C 83.8296,272.497 79.4962,268.33 81.5,257.5 Z"/></g>
<g><path style="opacity:1" fill="#959eff" d="M 254.5,260.5 C 253.833,262.833 253.167,265.167 252.5,267.5C 252.187,264.753 252.52,262.086 253.5,259.5C 254.107,259.624 254.44,259.957 254.5,260.5 Z"/></g>
<g><path style="opacity:1" fill="#ffb26f" d="M 112.5,268.5 C 124.989,269.495 137.656,269.829 150.5,269.5C 137.661,270.825 124.661,270.825 111.5,269.5C 111.624,268.893 111.957,268.56 112.5,268.5 Z"/></g>
</svg>
